<svg width="357" height="358" viewBox="0 0 357 358" fill="none" xmlns="http://www.w3.org/2000/svg">
<path d="M330 130.5L337.868 158.895C340.278 167.592 341.5 176.575 341.5 185.599V203.654C341.5 219.012 337.963 234.163 331.163 247.932L329.675 250.946C324.271 261.889 316.909 271.751 307.953 280.044L281 305" stroke="black" stroke-width="7" stroke-linecap="round"/>
<circle cx="175" cy="180" r="162.5" stroke="black" stroke-width="9"/>
<path d="M111 94.0658C197.8 94.0658 206.5 92.7326 206.5 102.066V240.566V240.566C206.5 248.298 200.232 254.566 192.5 254.566H111" stroke="black" stroke-width="8" stroke-linecap="round"/>
<path d="M175 174C172.791 174 171 175.791 171 178C171 180.209 172.791 182 175 182V174ZM272.828 180.828C274.391 179.266 274.391 176.734 272.828 175.172L247.373 149.716C245.81 148.154 243.278 148.154 241.716 149.716C240.154 151.278 240.154 153.81 241.716 155.373L264.343 178L241.716 200.627C240.154 202.19 240.154 204.722 241.716 206.284C243.278 207.846 245.81 207.846 247.373 206.284L272.828 180.828ZM175 182H270V174H175V182Z" fill="black"/>
<path d="M109 94H168.25L188.646 96.8133C189.547 96.9375 190.436 97.1368 191.304 97.4091V97.4091C198.115 99.5459 202.75 105.858 202.75 112.996V113.5V184V228.165C202.75 236.897 200.42 245.47 196 253V253" stroke="black" stroke-width="10" stroke-linecap="round"/>
<path d="M183 174L266 178" stroke="black" stroke-width="9" stroke-linecap="round"/>
<path d="M236.5 148.5L242.17 151.593C252.925 157.459 262.256 165.621 269.5 175.5V175.5" stroke="black" stroke-width="9" stroke-linecap="round"/>
<path d="M141.5 21L122.855 28.2354C113.014 32.0544 103.839 37.4075 95.6723 44.0959L66.7067 67.8178C55.6958 76.8353 46.7366 88.0993 40.4279 100.857L33.0825 115.711C29.3755 123.207 26.6235 131.139 24.8909 139.321L20.6695 159.255C19.2271 166.066 18.5 173.01 18.5 179.972V188.384C18.5 201.014 20.8925 213.529 25.5509 225.268L27.9504 231.315C29.98 236.43 32.4283 241.368 35.2703 246.08L50 270.5L71 304M125 334.5L164.789 336.651C175.199 337.213 185.633 336.145 195.712 333.484L224.646 325.845C236.774 322.644 248.191 317.189 258.301 309.766L273.194 298.832C279.378 294.292 285.018 289.056 290.004 283.228L304.369 266.435C313.359 255.926 320.071 243.667 324.081 230.432L338 184.5" stroke="black" stroke-width="10" stroke-linecap="round"/>
<path d="M119.913 241.001C117.98 241.025 116.432 242.611 116.457 244.544C116.481 246.477 118.067 248.024 120 248L119.913 241.001ZM120 248L200 247L199.912 240.001L119.913 241.001L120 248Z" fill="black"/>
<path d="M160.5 32.5H180.372C185.782 32.5 191.182 32.939 196.521 33.8125L208.708 35.8068C213.563 36.6012 218.352 37.7527 223.037 39.2519L236.225 43.4721C255.612 49.676 272.645 61.6486 285.046 77.7902L291.263 85.8819C295.41 91.2799 298.995 97.0872 301.963 103.213L308.836 117.403C311.606 123.121 313.824 129.091 315.461 135.23L315.623 135.838C317.865 144.243 319 152.905 319 161.604V172.5M36.5 207L38.0434 219.347C38.6802 224.441 39.7084 229.479 41.1188 234.416L42.5742 239.51C45.5058 249.77 50.0609 259.496 56.0667 268.317L58.4504 271.818C61.4785 276.265 64.8607 280.461 68.5639 284.365L73.0271 289.069C78.6545 295.001 84.988 300.22 91.8859 304.609L103.5 312" stroke="black" stroke-width="5" stroke-linecap="round"/>
<path d="M114 316L120.451 318.419C126.799 320.8 133.382 322.497 140.09 323.484V323.484C144.69 324.16 149.334 324.5 153.985 324.5H166.5" stroke="black" stroke-width="5" stroke-linecap="round"/>
<path d="M159.5 33L183.173 35.6728C188.051 36.2235 192.882 37.1327 197.626 38.3929L222.5 45L236.391 49.1157C253.801 54.2744 269.478 64.0765 281.74 77.4701L295.5 92.5" stroke="black" stroke-width="7" stroke-linecap="round"/>
<path d="M149 18L114 36L95.7986 46.4008C86.9842 51.4376 78.9883 57.7871 72.0856 65.2312L63.5056 74.4841C59.1784 79.1507 55.3066 84.2197 51.9428 89.6222L45.3248 100.251C42.1149 105.406 39.3814 110.843 37.1579 116.494L31.7569 130.222C29.5899 135.73 27.9162 141.419 26.7554 147.223L24.9419 156.29C23.6505 162.748 23 169.317 23 175.902V219.5" stroke="black" stroke-width="7" stroke-linecap="round"/>
<path d="M185.486 129.435C186.831 130.824 189.047 130.859 190.435 129.514C191.824 128.169 191.859 125.953 190.514 124.565L185.486 129.435ZM154.486 97.4353L185.486 129.435L190.514 124.565L159.514 92.5647L154.486 97.4353Z" fill="black"/>
<line x1="173.478" y1="94.6525" x2="204.478" y2="128.652" stroke="black" stroke-width="4"/>
<line x1="138.425" y1="93.5965" x2="204.425" y2="160.596" stroke="black" stroke-width="4"/>
<path d="M185 162C185.775 162.787 187.041 162.797 187.828 162.022C188.615 161.247 188.625 159.98 187.85 159.193L185 162ZM120 96.0001L185 162L187.85 159.193L122.85 93.1933L120 96.0001Z" fill="black"/>
<ellipse cx="178.25" cy="178.78" rx="178.25" ry="178.78" fill="#BA9973" fill-opacity="0.3"/>
</svg>
