<svg width="357" height="358" viewBox="0 0 357 358" fill="none" xmlns="http://www.w3.org/2000/svg">
<path d="M84 80.5C102.5 61.5 119 55 136.5 50M151.5 47.5L170.5 44.5" stroke="black" stroke-width="8" stroke-linecap="round"/>
<path d="M92.5 304.5C66 283 39.9998 253.5 37.5 217" stroke="black" stroke-width="8" stroke-linecap="round"/>
<path d="M166 107L139 131" stroke="black" stroke-width="4" stroke-linecap="round"/>
<path d="M225 160L198 184" stroke="black" stroke-width="4" stroke-linecap="round"/>
<path d="M216 157L175 192" stroke="black" stroke-width="4" stroke-linecap="round"/>
<path d="M166 107L139 131" stroke="black" stroke-width="4" stroke-linecap="round"/>
<path d="M164 212L125 247" stroke="black" stroke-width="6" stroke-linecap="round"/>
<path d="M206 216L168 252" stroke="black" stroke-width="6" stroke-linecap="round"/>
<path d="M231 226L193 262" stroke="black" stroke-width="6" stroke-linecap="round"/>
<path d="M223 222L185 258" stroke="black" stroke-width="6" stroke-linecap="round"/>
<path d="M137 216L110 240" stroke="black" stroke-width="4" stroke-linecap="round"/>
<path d="M256 240L229 264" stroke="black" stroke-width="4" stroke-linecap="round"/>
<path d="M250 232L225 256" stroke="black" stroke-width="4" stroke-linecap="round"/>
<path d="M205 120L151 168" stroke="black" stroke-width="4" stroke-linecap="round"/>
<path d="M213 136L159 184" stroke="black" stroke-width="6" stroke-linecap="round"/>
<path d="M152 212L98 260" stroke="black" stroke-width="4" stroke-linecap="round"/>
<path d="M205 107L137 168" stroke="black" stroke-width="4" stroke-linecap="round"/>
<path d="M185 212L133 260" stroke="black" stroke-width="6" stroke-linecap="round"/>
<path d="M189 220L141 266" stroke="black" stroke-width="4" stroke-linecap="round"/>
<path d="M186 112L132 160" stroke="black" stroke-width="6" stroke-linecap="round"/>
<path d="M212 125L147 184" stroke="black" stroke-width="4" stroke-linecap="round"/>
<path d="M91.5 60C73.0002 71.5 41.5 105 34.5 146M133 39.4999C203.5 14 274.5 51 298.5 95.4999M177.5 14.5H158.255C149.457 14.5 140.697 15.6611 132.203 17.9532L126.621 19.4595C117.914 21.809 109.564 25.3256 101.8 29.9136L98.2994 31.9822C93.7735 34.6566 89.4656 37.6837 85.4156 41.0354L76.355 48.5338C67.1919 56.1171 59.455 65.2744 53.5082 75.5751L34.5 108.5L28.4749 117.629C21.5542 128.115 16.6813 139.816 14.1134 152.115V152.115C10.4398 169.709 11.599 187.971 17.4679 204.96L18 206.5" stroke="black" stroke-width="7" stroke-linecap="round"/>
<path d="M219.428 122.198L200 105.5C173 88 141 114.5 149.5 108.5L149.838 108.253C158.066 102.24 167.992 99 178.183 99H181.415C197.432 99 212.104 107.954 219.428 122.198V122.198ZM219.428 122.198L220.359 123.998C231.562 145.681 224.78 172.316 204.571 186V186" stroke="black" stroke-width="7" stroke-linecap="round"/>
<path d="M134.168 131V131C121.546 149.869 128.98 175.56 149.728 184.774L166 192" stroke="black" stroke-width="7" stroke-linecap="round"/>
<path d="M164 211L127.773 213.174C118.954 213.703 110.708 217.714 104.848 224.325V224.325C98.2912 231.723 95.3599 241.651 96.847 251.423L98 259" stroke="black" stroke-width="7" stroke-linecap="round"/>
<path d="M165.128 209.285C173.097 209.285 181.116 209.625 189.066 209.625" stroke="black" stroke-width="3" stroke-linecap="round"/>
<path d="M333 129.5L340.868 157.895C343.278 166.592 344.5 175.575 344.5 184.599V202.654C344.5 218.012 340.963 233.163 334.163 246.932L332.675 249.946C327.271 260.889 319.909 270.751 310.953 279.044L284 304" stroke="black" stroke-width="7" stroke-linecap="round"/>
<path d="M49 280L52.6414 284.916C56.8684 290.622 61.6913 295.862 67.0285 300.547L92.5695 322.967C100.143 329.614 108.713 335.032 117.967 339.02V339.02C127.918 343.309 138.521 345.887 149.33 346.646L174.423 348.407C184.745 349.131 195.117 348.249 205.169 345.792L237.439 337.904C250.673 334.669 263.107 328.764 273.977 320.551L285.442 311.888C296.687 303.392 306.009 292.615 312.797 280.263L333 243.5" stroke="black" stroke-width="10" stroke-linecap="round"/>
<path d="M34 257V257C36.3124 265.258 40.1694 273.004 45.3669 279.825L45.5 280" stroke="black" stroke-width="4" stroke-linecap="round"/>
<circle cx="178" cy="179" r="162.5" stroke="black" stroke-width="9"/>
<path d="M227 147.5C227 173.697 205.546 195 179 195C152.454 195 131 173.697 131 147.5C131 121.303 152.454 100 179 100C205.546 100 227 121.303 227 147.5Z" stroke="black" stroke-width="8"/>
<path d="M97 261C99.9816 235.572 110.499 223.657 125.325 216.626C129.56 215.255 122 212.713 150.5 212.713C179 212.713 228.138 209.541 241.11 220.116C244.842 223.158 247.687 225.907 249.853 228.353C256.894 236.304 257.366 248.013 259 258.508V258.508" stroke="black" stroke-width="9" stroke-linecap="round"/>
<path d="M185 212.5C200.805 212.994 215.882 213.081 228.327 213.257C249.167 213.551 260 227.204 260 248.047V258.5" stroke="black" stroke-width="8" stroke-linecap="round"/>
<path d="M184 345.5L218.082 336.979C227.313 334.672 236.168 331.058 244.378 326.248L263.571 315.004C275.397 308.075 285.673 298.789 293.76 287.723L309.538 266.132C316.133 257.108 321.168 247.042 324.434 236.353L331.635 212.785C334.529 203.314 336 193.466 336 183.563V177.83C336 168.983 334.826 160.174 332.508 151.635L326.5 129.5L319.5 98" stroke="black" stroke-width="8" stroke-linecap="round"/>
<ellipse cx="178.25" cy="178.78" rx="178.25" ry="178.78" fill="#BA9973" fill-opacity="0.3"/>
</svg>
